<svg width="44" height="38" viewBox="0 0 44 38" fill="none" xmlns="http://www.w3.org/2000/svg">
<rect width="44" height="38" rx="10" fill="#FFC300"/>
<path d="M10.0001 11C9.86757 10.9981 9.73601 11.0226 9.61304 11.072C9.49007 11.1214 9.37815 11.1948 9.28378 11.2878C9.18941 11.3809 9.11447 11.4917 9.06333 11.614C9.01218 11.7362 8.98584 11.8675 8.98584 12C8.98584 12.1325 9.01218 12.2637 9.06333 12.386C9.11447 12.5082 9.18941 12.6191 9.28378 12.7121C9.37815 12.8052 9.49007 12.8785 9.61304 12.928C9.73601 12.9774 9.86757 13.0019 10.0001 13H34.0001C34.1326 13.0019 34.2642 12.9774 34.3871 12.928C34.5101 12.8785 34.622 12.8052 34.7164 12.7121C34.8108 12.6191 34.8857 12.5082 34.9368 12.386C34.988 12.2637 35.0143 12.1325 35.0143 12C35.0143 11.8675 34.988 11.7362 34.9368 11.614C34.8857 11.4917 34.8108 11.3809 34.7164 11.2878C34.622 11.1948 34.5101 11.1214 34.3871 11.072C34.2642 11.0226 34.1326 10.9981 34.0001 11H10.0001ZM10.0001 18C9.86757 17.9981 9.73601 18.0226 9.61304 18.072C9.49007 18.1214 9.37815 18.1948 9.28378 18.2878C9.18941 18.3809 9.11447 18.4917 9.06333 18.614C9.01218 18.7362 8.98584 18.8675 8.98584 19C8.98584 19.1325 9.01218 19.2637 9.06333 19.386C9.11447 19.5082 9.18941 19.6191 9.28378 19.7121C9.37815 19.8052 9.49007 19.8785 9.61304 19.928C9.73601 19.9774 9.86757 20.0019 10.0001 20H34.0001C34.1326 20.0019 34.2642 19.9774 34.3871 19.928C34.5101 19.8785 34.622 19.8052 34.7164 19.7121C34.8108 19.6191 34.8857 19.5082 34.9368 19.386C34.988 19.2637 35.0143 19.1325 35.0143 19C35.0143 18.8675 34.988 18.7362 34.9368 18.614C34.8857 18.4917 34.8108 18.3809 34.7164 18.2878C34.622 18.1948 34.5101 18.1214 34.3871 18.072C34.2642 18.0226 34.1326 17.9981 34.0001 18H10.0001ZM10.0001 25C9.86757 24.9981 9.73601 25.0226 9.61304 25.072C9.49007 25.1214 9.37815 25.1948 9.28378 25.2878C9.18941 25.3809 9.11447 25.4917 9.06333 25.614C9.01218 25.7362 8.98584 25.8675 8.98584 26C8.98584 26.1325 9.01218 26.2637 9.06333 26.386C9.11447 26.5082 9.18941 26.6191 9.28378 26.7121C9.37815 26.8052 9.49007 26.8785 9.61304 26.928C9.73601 26.9774 9.86757 27.0019 10.0001 27H34.0001C34.1326 27.0019 34.2642 26.9774 34.3871 26.928C34.5101 26.8785 34.622 26.8052 34.7164 26.7121C34.8108 26.6191 34.8857 26.5082 34.9368 26.386C34.988 26.2637 35.0143 26.1325 35.0143 26C35.0143 25.8675 34.988 25.7362 34.9368 25.614C34.8857 25.4917 34.8108 25.3809 34.7164 25.2878C34.622 25.1948 34.5101 25.1214 34.3871 25.072C34.2642 25.0226 34.1326 24.9981 34.0001 25H10.0001Z" fill="black"/>
</svg>
