<svg width="23" height="24" viewBox="0 0 23 24" fill="none" xmlns="http://www.w3.org/2000/svg">
<path d="M11.5462 0C5.23568 0 0.0924625 5.31661 0.0924625 11.8399C0.0924625 13.9307 0.624121 15.9618 1.61809 17.7539L0 23.8949L6.06784 22.2461C7.74372 23.19 9.62764 23.6918 11.5462 23.6918C17.8568 23.6918 23 18.3752 23 11.8519C23 8.68579 21.8095 5.71088 19.6482 3.47671C17.4869 1.23059 14.609 0 11.5462 0ZM11.5578 1.99522C14.1005 1.99522 16.4814 3.0227 18.2844 4.88651C20.0759 6.75031 21.0698 9.22343 21.0698 11.8519C21.0698 17.276 16.7935 21.6846 11.5462 21.6846C9.83568 21.6846 8.1598 21.2187 6.70352 20.3107L6.35678 20.1076L2.75075 21.0872L3.71005 17.4552L3.47889 17.0729C2.53116 15.5317 2.02261 13.7037 2.02261 11.8399C2.03417 6.41578 6.29899 1.99522 11.5578 1.99522ZM7.48945 6.36799C7.30452 6.36799 6.99246 6.43967 6.72663 6.73836C6.47236 7.03705 5.7211 7.76584 5.7211 9.21148C5.7211 10.6691 6.74975 12.0669 6.87688 12.27C7.03869 12.4731 8.91105 15.46 11.7889 16.7264C12.4709 17.049 13.0025 17.2282 13.4186 17.3596C14.1005 17.5866 14.7246 17.5508 15.2216 17.4791C15.7764 17.3955 16.909 16.7623 17.1518 16.0693C17.3945 15.3764 17.3945 14.7909 17.3251 14.6595C17.2442 14.54 17.0593 14.4684 16.7703 14.3369C16.4814 14.1697 15.0714 13.4528 14.8171 13.3572C14.5513 13.2617 14.3894 13.2139 14.1698 13.5006C13.9849 13.7993 13.4301 14.4684 13.2683 14.6595C13.095 14.8626 12.9332 14.8865 12.6558 14.7432C12.3553 14.5878 11.4307 14.2772 10.3442 13.2736C9.48894 12.4851 8.92261 11.5173 8.74924 11.2187C8.61055 10.9319 8.73769 10.7527 8.87638 10.6213C9.00352 10.4899 9.18844 10.2748 9.30402 10.0956C9.45427 9.92833 9.5005 9.79691 9.59296 9.60575C9.68543 9.40264 9.63919 9.23538 9.56985 9.09201C9.5005 8.96059 8.92261 7.4791 8.6799 6.89368C8.44874 6.3202 8.21759 6.39188 8.03266 6.37994C7.87085 6.37994 7.68593 6.36799 7.48945 6.36799Z" fill="#000814"/>
</svg>
