<svg width="86" height="80" viewBox="0 0 86 80" fill="none" xmlns="http://www.w3.org/2000/svg">
<path d="M82.8248 45.8164C83.2031 52.2543 80.2187 58.4431 74.8803 62.2229L78.117 68.4116C79.0838 70.2807 79.2099 72.4821 78.3692 74.4343C77.5705 76.3864 75.9312 77.9232 73.9136 78.5878L70.5928 79.6262C69.8783 79.8754 69.0796 80 68.323 80C66.1792 80 64.1616 79.0447 62.7744 77.3417L53.8632 66.9579C50.1221 66.3349 46.5912 64.7565 43.6068 62.389C41.5051 63.012 39.4033 63.3443 37.3016 63.3443C33.6026 63.3443 29.9036 62.2228 26.793 60.063C24.5652 60.7276 22.2954 61.0183 19.9835 60.9768C16.6628 61.0183 13.3841 60.3538 10.3156 59.1077C4.30466 56.4494 0.311393 50.6345 0.101221 44.1134C-0.235054 41.1229 0.269359 38.0908 1.57242 35.3494C0.353427 32.2343 0.227324 28.8284 1.27818 25.6717C2.83345 21.7258 5.77586 18.4445 9.43285 16.3678C11.8708 9.34828 18.7224 4.65478 26.2466 5.1532C32.9721 -1.07711 43.2705 -1.74167 50.7526 3.61639C52.5181 3.1595 54.3676 2.91029 56.2171 2.91029C61.9338 2.78568 67.3562 5.27781 70.9291 9.7221C79.5041 11.9235 85.6411 19.4829 85.9774 28.2884C86.1876 32.8988 84.9266 37.4262 82.3624 41.289C82.6567 42.7843 82.8248 44.2795 82.8248 45.8164ZM61.8077 39.9599C64.2036 40.2506 66.0952 42.0366 66.0952 44.4042C66.0952 45.5057 65.6523 46.5622 64.864 47.3412C64.0757 48.1201 63.0065 48.5577 61.8917 48.5577H59.2436C57.8985 52.2959 55.5445 55.5772 52.434 58.0693C53.4849 58.4431 54.5778 58.6508 55.6706 58.9416C77.2343 58.6508 74.7122 45.6502 74.7122 45.4425C74.46 39.503 69.4159 34.851 63.405 35.1002C62.2901 35.1002 61.221 34.6626 60.4327 33.8837C59.6444 33.1047 59.2015 32.0483 59.2015 30.9467C59.2015 29.8451 59.6444 28.7886 60.4327 28.0097C61.221 27.2308 62.2901 26.7931 63.405 26.7931C68.5752 26.9178 73.5352 28.8284 77.4024 32.1927C77.6126 30.9882 77.7387 29.7422 77.7387 28.4961C77.4865 23.3457 75.1326 18.8599 65.6748 17.9876C60.4205 5.69316 47.1797 12.505 47.1797 16.3262C47.0536 17.2815 48.0624 19.3168 48.2306 19.4414C49.3454 19.4414 50.4145 19.879 51.2028 20.6579C51.9911 21.4369 52.434 22.4933 52.434 23.5949C52.434 25.8794 50.5425 27.7485 48.2306 27.7485C46.0027 27.6654 43.901 26.8347 42.2197 25.4225C40.202 26.7101 37.8901 27.4993 35.4941 27.7485C33.0982 27.9561 31.1226 26.2947 30.9965 24.0103C30.6602 21.6843 32.3836 19.6491 34.6955 19.4414C35.368 19.3583 38.6467 18.8599 38.6467 16.2432C38.6467 13.5018 39.6976 10.8851 41.5051 8.80832C37.6379 7.76993 33.4765 9.1406 29.2731 14.1664C21.5387 12.9619 18.3862 14.0002 16.0743 22.0996C12.081 24.0518 9.9793 25.4225 9.05454 29.576C13.5943 28.6622 18.2601 29.0361 22.5896 30.6144C24.6913 31.4036 25.8683 33.7296 25.0696 35.9725C24.271 38.1323 21.833 39.2122 19.6472 38.4231C16.5787 37.0939 13.1319 37.0109 9.9793 38.1738C8.6342 39.2953 8.6342 41.6213 8.6342 43.4488C8.6342 46.5225 10.1895 49.3884 12.8376 51.0498C15.0655 52.1713 17.5455 52.7528 20.0255 52.7112C19.395 51.6313 18.8485 50.5099 18.3862 49.3469C17.5875 47.104 18.8065 44.6534 21.0764 43.8642C23.3462 43.075 25.8263 44.2796 26.6249 46.5225C28.3063 51.2575 32.5938 54.4973 37.6379 55.0372C43.3966 54.7465 48.5248 51.3821 51.0469 46.1902C52.0137 40.4583 56.6795 39.9599 61.8077 39.9599ZM70.2145 70.9868L67.6084 65.5872L64.624 66.2518L68.8274 71.4437L70.2145 70.9868ZM50.6686 35.2248C50.7526 33.0235 49.0712 31.1544 46.8434 30.9467C43.859 30.7805 40.9586 31.7774 38.7308 33.7296C36.3348 36.1386 35.0738 39.4614 35.1999 42.8258C35.1999 43.9274 35.6428 44.9839 36.4311 45.7628C37.2194 46.5418 38.2885 46.9794 39.4033 46.9794C41.7993 46.9794 43.6068 45.1103 43.6068 42.8258C43.6068 41.7044 43.901 40.5829 44.5736 39.6691C45.078 39.2538 45.7085 39.0461 46.3811 39.0461C48.6929 39.1707 50.6686 37.4677 50.6686 35.2248Z" fill="#0075BF"/>
</svg>
