<svg width="81" height="80" viewBox="0 0 81 80" fill="none" xmlns="http://www.w3.org/2000/svg">
<path d="M62.7222 62.2222H18.2778V17.7778H62.7222M80.5 35.5556V26.6667H71.6111V17.7778C71.6111 12.8444 67.6111 8.88889 62.7222 8.88889H53.8333V0H44.9444V8.88889H36.0556V0H27.1667V8.88889H18.2778C13.3444 8.88889 9.38889 12.8444 9.38889 17.7778V26.6667H0.5V35.5556H9.38889V44.4444H0.5V53.3333H9.38889V62.2222C9.38889 64.5797 10.3254 66.8406 11.9924 68.5076C13.6594 70.1746 15.9203 71.1111 18.2778 71.1111H27.1667V80H36.0556V71.1111H44.9444V80H53.8333V71.1111H62.7222C65.0797 71.1111 67.3406 70.1746 69.0076 68.5076C70.6746 66.8406 71.6111 64.5797 71.6111 62.2222V53.3333H80.5V44.4444H71.6111V35.5556M44.9444 44.4444H36.0556V35.5556H44.9444M53.8333 26.6667H27.1667V53.3333H53.8333V26.6667Z" fill="#0075BF"/>
</svg>
