<svg width="38" height="37" viewBox="0 0 38 37" fill="none" xmlns="http://www.w3.org/2000/svg">
<path d="M19 0.5C8.82499 0.5 0.5 8.61446 0.5 18.6084C0.5 27.6446 7.27099 35.1446 16.114 36.5V23.8494H11.415V18.6084H16.114V14.6145C16.114 10.0783 18.8705 7.58434 23.107 7.58434C25.1235 7.58434 27.2325 7.92771 27.2325 7.92771V12.3916H24.9015C22.6075 12.3916 21.886 13.7831 21.886 15.2108V18.6084H27.029L26.1965 23.8494H21.886V36.5C26.2454 35.8274 30.215 33.6545 33.0783 30.3736C35.9416 27.0927 37.5099 22.9198 37.5 18.6084C37.5 8.61446 29.175 0.5 19 0.5Z" fill="#FFC300"/>
</svg>
