<svg width="24" height="25" viewBox="0 0 24 25" fill="none" xmlns="http://www.w3.org/2000/svg">
<path d="M16 8.05322C17.5913 8.05322 19.1174 8.68536 20.2426 9.81058C21.3679 10.9358 22 12.4619 22 14.0532V21.0532H18V14.0532C18 13.5228 17.7893 13.0141 17.4142 12.639C17.0391 12.2639 16.5304 12.0532 16 12.0532C15.4696 12.0532 14.9609 12.2639 14.5858 12.639C14.2107 13.0141 14 13.5228 14 14.0532V21.0532H10V14.0532C10 12.4619 10.6321 10.9358 11.7574 9.81058C12.8826 8.68536 14.4087 8.05322 16 8.05322V8.05322Z" stroke="#000814" stroke-width="2" stroke-linecap="round" stroke-linejoin="round"/>
<path d="M6 9.05322H2V21.0532H6V9.05322Z" stroke="#000814" stroke-width="2" stroke-linecap="round" stroke-linejoin="round"/>
<path d="M4 6.05322C5.10457 6.05322 6 5.15779 6 4.05322C6 2.94865 5.10457 2.05322 4 2.05322C2.89543 2.05322 2 2.94865 2 4.05322C2 5.15779 2.89543 6.05322 4 6.05322Z" stroke="#000814" stroke-width="2" stroke-linecap="round" stroke-linejoin="round"/>
</svg>
