<svg width="102" height="102" viewBox="0 0 102 102" fill="none" xmlns="http://www.w3.org/2000/svg">
<circle cx="51" cy="51" r="51" fill="#FFC300"/>
<path d="M78.2727 56.4H75.5455C75.5455 45.951 67.0091 37.5 56.4545 37.5H53.7273V34.071C55.3636 33.153 56.4545 31.398 56.4545 29.4C56.4545 26.43 54.0273 24 51 24C47.9727 24 45.5455 26.43 45.5455 29.4C45.5455 31.398 46.6364 33.153 48.2727 34.071V37.5H45.5455C34.9909 37.5 26.4545 45.951 26.4545 56.4H23.7273C22.2273 56.4 21 57.615 21 59.1V67.2C21 68.685 22.2273 69.9 23.7273 69.9H26.4545V72.6C26.4545 75.597 28.9091 78 31.9091 78H70.0909C73.1182 78 75.5455 75.597 75.5455 72.6V69.9H78.2727C79.7727 69.9 81 68.685 81 67.2V59.1C81 57.615 79.7727 56.4 78.2727 56.4ZM41.9455 64.608L38.7273 61.422L35.5091 64.608L32.2909 61.422L38.7273 55.05L45.1636 61.422L41.9455 64.608ZM66.4909 64.608L63.2727 61.422L60.0545 64.608L56.8364 61.422L63.2727 55.05L69.7091 61.422L66.4909 64.608Z" fill="#003566"/>
</svg>
