<svg width="102" height="102" viewBox="0 0 102 102" fill="none" xmlns="http://www.w3.org/2000/svg">
<circle cx="51" cy="51" r="51" fill="#FFC300"/>
<path d="M36 73C31.8545 73 28.3182 71.5935 25.3909 68.7806C22.4636 65.9498 21 62.5008 21 58.4338C21 54.94 22.0636 51.8225 24.1909 49.0813C26.3364 46.34 29.1364 44.5931 32.5909 43.8406C33.7364 39.7198 36.0091 36.3873 39.4091 33.8431C42.8273 31.281 46.6909 30 51 30C56.3273 30 60.8364 31.8275 64.5273 35.4825C68.2364 39.1196 70.0909 43.5629 70.0909 48.8125C73.2364 49.1708 75.8364 50.5146 77.8909 52.8438C79.9636 55.1371 81 57.8246 81 60.9062C81 64.2746 79.8091 67.1323 77.4273 69.4794C75.0455 71.8265 72.1455 73 68.7273 73H36Z" fill="#003566"/>
</svg>
