<svg width="87" height="80" viewBox="0 0 87 80" fill="none" xmlns="http://www.w3.org/2000/svg">
<path d="M75.1364 8H67.2273V4H77.1136C78.2209 4 79.0909 4.88 79.0909 6V14C79.0909 15.12 78.2209 16 77.1136 16H75.1364V20H71.1818V12H75.1364V8ZM71.1818 28H75.1364V24H71.1818V28ZM63.2727 4H59.3182V20H63.2727V4ZM87 52V64C87 66.2 85.2205 68 83.0455 68H79.0909V72C79.0909 76.44 75.5714 80 71.1818 80H15.8182C11.4682 80 7.90909 76.44 7.90909 72V68H3.95455C1.77955 68 0 66.2 0 64V52C0 49.8 1.77955 48 3.95455 48H7.90909C7.90909 32.52 20.2868 20 35.5909 20H39.5455V14.92C37.1727 13.56 35.5909 10.96 35.5909 8C35.5909 3.6 39.15 0 43.5 0C47.85 0 51.4091 3.6 51.4091 8C51.4091 10.96 49.8273 13.56 47.4545 14.92V20H51.4091C52.7536 20 54.0586 20.12 55.3636 20.32V32H74.1082C77.2323 36.52 79.0909 42 79.0909 48H83.0455C85.2205 48 87 49.8 87 52ZM35.5909 54C35.5909 48.48 31.1618 44 25.7045 44C20.2473 44 15.8182 48.48 15.8182 54C15.8182 59.52 20.2473 64 25.7045 64C31.1618 64 35.5909 59.52 35.5909 54ZM71.1818 54C71.1818 48.48 66.7527 44 61.2955 44C55.8382 44 51.4091 48.48 51.4091 54C51.4091 59.52 55.8382 64 61.2955 64C66.7527 64 71.1818 59.52 71.1818 54ZM63.2727 24H59.3182V28H63.2727V24Z" fill="#0075BF"/>
</svg>
