<svg width="23" height="23" viewBox="0 0 23 23" fill="none" xmlns="http://www.w3.org/2000/svg">
<path d="M11.5462 0C5.23568 0 0.0924625 5.1175 0.0924625 11.3965C0.0924625 13.409 0.624121 15.364 1.61809 17.089L0 23L6.06784 21.413C7.74372 22.3215 9.62764 22.8045 11.5462 22.8045C17.8568 22.8045 23 17.687 23 11.408C23 8.3605 21.8095 5.497 19.6482 3.3465C17.4869 1.1845 14.609 0 11.5462 0ZM11.5578 1.9205C14.1005 1.9205 16.4814 2.9095 18.2844 4.7035C20.0759 6.4975 21.0698 8.878 21.0698 11.408C21.0698 16.629 16.7935 20.8725 11.5462 20.8725C9.83568 20.8725 8.1598 20.424 6.70352 19.55L6.35678 19.3545L2.75075 20.2975L3.71005 16.8015L3.47889 16.4335C2.53116 14.95 2.02261 13.1905 2.02261 11.3965C2.03417 6.1755 6.29899 1.9205 11.5578 1.9205ZM7.48945 6.1295C7.30452 6.1295 6.99246 6.1985 6.72663 6.486C6.47236 6.7735 5.7211 7.475 5.7211 8.8665C5.7211 10.2695 6.74975 11.615 6.87688 11.8105C7.03869 12.006 8.91105 14.881 11.7889 16.1C12.4709 16.4105 13.0025 16.583 13.4186 16.7095C14.1005 16.928 14.7246 16.8935 15.2216 16.8245C15.7764 16.744 16.909 16.1345 17.1518 15.4675C17.3945 14.8005 17.3945 14.237 17.3251 14.1105C17.2442 13.9955 17.0593 13.9265 16.7703 13.8C16.4814 13.639 15.0714 12.949 14.8171 12.857C14.5513 12.765 14.3894 12.719 14.1698 12.995C13.9849 13.2825 13.4301 13.9265 13.2683 14.1105C13.095 14.306 12.9332 14.329 12.6558 14.191C12.3553 14.0415 11.4307 13.7425 10.3442 12.7765C9.48894 12.0175 8.92261 11.086 8.74924 10.7985C8.61055 10.5225 8.73769 10.35 8.87638 10.2235C9.00352 10.097 9.18844 9.89 9.30402 9.7175C9.45427 9.5565 9.5005 9.43 9.59296 9.246C9.68543 9.0505 9.63919 8.8895 9.56985 8.7515C9.5005 8.625 8.92261 7.199 8.6799 6.6355C8.44874 6.0835 8.21759 6.1525 8.03266 6.141C7.87085 6.141 7.68593 6.1295 7.48945 6.1295Z" fill="white"/>
</svg>
