<?xml version="1.0" encoding="UTF-8"?>
<!DOCTYPE svg PUBLIC "-//W3C//DTD SVG 1.1//EN" "http://www.w3.org/Graphics/SVG/1.1/DTD/svg11.dtd">
<svg xmlns="http://www.w3.org/2000/svg" version="1.1" width="1080px" height="1080px" style="shape-rendering:geometricPrecision; text-rendering:geometricPrecision; image-rendering:optimizeQuality; fill-rule:evenodd; clip-rule:evenodd" xmlns:xlink="http://www.w3.org/1999/xlink">
<g><path style="opacity:0.972" fill="#fec300" d="M 507.5,267.5 C 528.833,267.5 550.167,267.5 571.5,267.5C 571.5,288.833 571.5,310.167 571.5,331.5C 551.164,331.333 530.831,331.5 510.5,332C 530.667,352.167 550.833,372.333 571,392.5C 571.667,476.167 571.667,559.833 571,643.5C 550.32,664.347 529.486,685.014 508.5,705.5C 507.5,559.502 507.167,413.502 507.5,267.5 Z"/></g>
<g><path style="opacity:0.979" fill="#001c3d" d="M 132.5,328.5 C 216.501,328.333 300.501,328.5 384.5,329C 405.347,349.68 426.014,370.514 446.5,391.5C 363.169,392.5 279.836,392.833 196.5,392.5C 196.5,412.833 196.5,433.167 196.5,453.5C 259.168,453.333 321.834,453.5 384.5,454C 405,474.5 425.5,495 446,515.5C 446.667,558.167 446.667,600.833 446,643.5C 425.5,664 405,684.5 384.5,705C 300.501,705.5 216.501,705.667 132.5,705.5C 132.5,663.5 132.5,621.5 132.5,579.5C 153.833,579.5 175.167,579.5 196.5,579.5C 196.5,600.167 196.5,620.833 196.5,641.5C 258.5,641.5 320.5,641.5 382.5,641.5C 382.5,600.167 382.5,558.833 382.5,517.5C 319.832,517.667 257.166,517.5 194.5,517C 174,496.5 153.5,476 133,455.5C 132.5,413.168 132.333,370.835 132.5,328.5 Z"/></g>
<g><path style="opacity:0.984" fill="#001c3d" d="M 694.5,330.5 C 778.167,330.333 861.834,330.5 945.5,331C 924.833,351.667 904.167,372.333 883.5,393C 820.834,393.5 758.168,393.667 695.5,393.5C 695.5,476.167 695.5,558.833 695.5,641.5C 757.5,641.5 819.5,641.5 881.5,641.5C 881.5,600.5 881.5,559.5 881.5,518.5C 840.161,518.833 798.828,518.5 757.5,517.5C 777.986,496.514 798.653,475.68 819.5,455C 861.499,454.5 903.499,454.333 945.5,454.5C 945.5,538.167 945.5,621.833 945.5,705.5C 841.167,705.5 736.833,705.5 632.5,705.5C 632.333,601.166 632.5,496.833 633,392.5C 653.702,371.965 674.202,351.299 694.5,330.5 Z"/></g>
<g><path style="opacity:0.796" fill="#001c3d" d="M 305.5,784.5 C 314.487,782.804 320.487,786.138 323.5,794.5C 321.604,795.466 319.604,795.799 317.5,795.5C 317.703,793.61 317.037,792.11 315.5,791C 309.326,787.547 304.66,789.047 301.5,795.5C 302.253,797.753 303.586,799.587 305.5,801C 311.592,802.357 317.092,804.857 322,808.5C 324.615,814.534 323.448,819.701 318.5,824C 310.869,826.889 304.036,825.722 298,820.5C 296.872,818.655 296.372,816.655 296.5,814.5C 298.199,814.34 299.866,814.506 301.5,815C 304.538,821.184 309.205,822.851 315.5,820C 319.72,815.892 319.387,812.225 314.5,809C 308.294,807.917 302.794,805.417 298,801.5C 295.211,793.334 297.711,787.668 305.5,784.5 Z"/></g>
<g><path style="opacity:0.811" fill="#001c3d" d="M 367.5,784.5 C 386.307,784.394 394.141,793.727 391,812.5C 385.034,824.725 375.534,828.558 362.5,824C 351.123,815.115 348.956,804.282 356,791.5C 359.263,788.037 363.097,785.704 367.5,784.5 Z M 366.5,789.5 C 383.297,789.143 389.464,797.143 385,813.5C 379.37,821.264 372.204,823.098 363.5,819C 356.865,812.491 355.365,804.991 359,796.5C 361.015,793.588 363.515,791.255 366.5,789.5 Z"/></g>
<g><path style="opacity:0.808" fill="#001c3d" d="M 632.5,784.5 C 652.857,784.69 660.69,794.69 656,814.5C 649.672,825.377 640.505,828.544 628.5,824C 617.838,816.533 615.005,806.699 620,794.5C 622.887,789.434 627.054,786.101 632.5,784.5 Z M 632.5,789.5 C 650.16,789.475 655.993,797.809 650,814.5C 644.448,821.568 637.614,823.068 629.5,819C 619.623,807.924 620.623,798.091 632.5,789.5 Z"/></g>
<g><path style="opacity:0.797" fill="#001c3d" d="M 757.5,784.5 C 766.532,782.813 772.532,786.146 775.5,794.5C 773.604,795.466 771.604,795.799 769.5,795.5C 769.703,793.61 769.037,792.11 767.5,791C 761.372,787.537 756.705,789.037 753.5,795.5C 754.253,797.753 755.586,799.587 757.5,801C 763.592,802.357 769.092,804.857 774,808.5C 776.763,814.585 775.596,819.752 770.5,824C 765.953,825.545 761.287,825.879 756.5,825C 751.348,823.353 748.681,819.853 748.5,814.5C 750.199,814.34 751.866,814.506 753.5,815C 756.538,821.184 761.205,822.851 767.5,820C 770.936,816.94 771.269,813.607 768.5,810C 764.637,808.268 760.637,806.934 756.5,806C 748.461,801.85 746.794,795.85 751.5,788C 753.432,786.541 755.432,785.375 757.5,784.5 Z"/></g>
<g><path style="opacity:0.813" fill="#001c3d" d="M 421.5,785.5 C 423.167,785.5 424.833,785.5 426.5,785.5C 426.5,797.5 426.5,809.5 426.5,821.5C 431.167,821.5 435.833,821.5 440.5,821.5C 440.5,822.833 440.5,824.167 440.5,825.5C 434.167,825.5 427.833,825.5 421.5,825.5C 421.5,812.167 421.5,798.833 421.5,785.5 Z"/></g>
<g><path style="opacity:0.835" fill="#001c3d" d="M 468.5,785.5 C 470.167,785.5 471.833,785.5 473.5,785.5C 473.105,795.566 473.605,805.566 475,815.5C 478.956,821.759 484.122,822.926 490.5,819C 491.893,817.829 492.727,816.329 493,814.5C 493.5,804.839 493.666,795.172 493.5,785.5C 495.167,785.5 496.833,785.5 498.5,785.5C 498.931,796.578 498.431,807.578 497,818.5C 493.983,823.592 489.483,825.926 483.5,825.5C 477.103,825.921 472.603,823.254 470,817.5C 468.625,806.889 468.125,796.222 468.5,785.5 Z"/></g>
<g><path style="opacity:0.851" fill="#001c3d" d="M 527.5,785.5 C 536.5,785.5 545.5,785.5 554.5,785.5C 554.5,786.833 554.5,788.167 554.5,789.5C 550.833,789.5 547.167,789.5 543.5,789.5C 543.5,801.5 543.5,813.5 543.5,825.5C 541.833,825.5 540.167,825.5 538.5,825.5C 538.5,813.5 538.5,801.5 538.5,789.5C 534.833,789.5 531.167,789.5 527.5,789.5C 527.5,788.167 527.5,786.833 527.5,785.5 Z"/></g>
<g><path style="opacity:0.84" fill="#001c3d" d="M 582.5,785.5 C 584.167,785.5 585.833,785.5 587.5,785.5C 587.5,798.833 587.5,812.167 587.5,825.5C 585.833,825.5 584.167,825.5 582.5,825.5C 582.5,812.167 582.5,798.833 582.5,785.5 Z"/></g>
<g><path style="opacity:0.827" fill="#001c3d" d="M 687.5,785.5 C 689.604,785.201 691.604,785.534 693.5,786.5C 700.249,796.329 706.749,806.329 713,816.5C 713.5,806.172 713.666,795.839 713.5,785.5C 715.167,785.5 716.833,785.5 718.5,785.5C 718.5,798.833 718.5,812.167 718.5,825.5C 715.956,825.896 713.789,825.229 712,823.5C 705.667,813.833 699.333,804.167 693,794.5C 692.5,804.828 692.334,815.161 692.5,825.5C 690.833,825.5 689.167,825.5 687.5,825.5C 687.5,812.167 687.5,798.833 687.5,785.5 Z"/></g>
</svg>
